<mxfile host="65bd71144e">
    <diagram id="HwMLuo8MQx-0gaI9BWYH" name="第 1 页">
        <mxGraphModel dx="1391" dy="701" grid="1" gridSize="5" guides="1" tooltips="1" connect="1" arrows="1" fold="1" page="1" pageScale="1" pageWidth="1169" pageHeight="827" math="0" shadow="0">
            <root>
                <mxCell id="0"/>
                <mxCell id="1" parent="0"/>
                <mxCell id="30" value="FETCH1" style="swimlane;fontSize=9;" vertex="1" parent="1">
                    <mxGeometry x="20" y="239" width="80" height="367" as="geometry">
                        <mxRectangle x="20" y="239" width="65" height="23" as="alternateBounds"/>
                    </mxGeometry>
                </mxCell>
                <mxCell id="39" style="edgeStyle=none;html=1;exitX=0.5;exitY=1;exitDx=0;exitDy=0;entryX=1;entryY=0.5;entryDx=0;entryDy=0;fontSize=9;" edge="1" parent="30" source="29" target="38">
                    <mxGeometry relative="1" as="geometry">
                        <Array as="points">
                            <mxPoint x="85" y="191"/>
                            <mxPoint x="85" y="67"/>
                        </Array>
                    </mxGeometry>
                </mxCell>
                <mxCell id="29" value="" style="rounded=0;whiteSpace=wrap;html=1;fontSize=9;rotation=-90;" vertex="1" parent="30">
                    <mxGeometry x="-43" y="185.94" width="220" height="10" as="geometry"/>
                </mxCell>
                <mxCell id="37" style="edgeStyle=none;html=1;exitX=0.5;exitY=0;exitDx=0;exitDy=0;entryX=0.5;entryY=0;entryDx=0;entryDy=0;fontSize=9;" edge="1" parent="30" source="36" target="29">
                    <mxGeometry relative="1" as="geometry"/>
                </mxCell>
                <mxCell id="36" value="" style="shape=trapezoid;perimeter=trapezoidPerimeter;whiteSpace=wrap;html=1;fixedSize=1;fontSize=9;rotation=90;" vertex="1" parent="30">
                    <mxGeometry x="-61.75" y="187.13" width="212.5" height="7.62" as="geometry"/>
                </mxCell>
                <mxCell id="40" style="edgeStyle=none;html=1;exitX=0;exitY=0.5;exitDx=0;exitDy=0;entryX=0.124;entryY=1.241;entryDx=0;entryDy=0;entryPerimeter=0;fontSize=9;" edge="1" parent="30" source="38" target="36">
                    <mxGeometry relative="1" as="geometry">
                        <Array as="points">
                            <mxPoint x="25" y="66"/>
                            <mxPoint x="25" y="111"/>
                        </Array>
                    </mxGeometry>
                </mxCell>
                <mxCell id="38" value="PC+8" style="rounded=0;whiteSpace=wrap;html=1;fontSize=9;" vertex="1" parent="30">
                    <mxGeometry x="39.5" y="59" width="30" height="15" as="geometry"/>
                </mxCell>
                <mxCell id="31" value="FETCH2" style="swimlane;fontSize=9;" vertex="1" parent="1">
                    <mxGeometry x="100" y="239" width="100" height="366" as="geometry">
                        <mxRectangle x="100" y="239" width="65" height="23" as="alternateBounds"/>
                    </mxGeometry>
                </mxCell>
                <mxCell id="20" value="&lt;font style=&quot;font-size: 9px&quot;&gt;BTB&lt;/font&gt;" style="whiteSpace=wrap;html=1;aspect=fixed;align=center;" vertex="1" parent="31">
                    <mxGeometry x="25" y="200.94" width="40" height="40" as="geometry"/>
                </mxCell>
                <mxCell id="49" style="edgeStyle=none;html=1;exitX=1;exitY=0.5;exitDx=0;exitDy=0;entryX=0.197;entryY=0.026;entryDx=0;entryDy=0;entryPerimeter=0;fontSize=9;" edge="1" parent="31" source="21" target="44">
                    <mxGeometry relative="1" as="geometry"/>
                </mxCell>
                <mxCell id="21" value="&lt;font style=&quot;font-size: 9px&quot;&gt;ICACHE&lt;/font&gt;" style="whiteSpace=wrap;html=1;aspect=fixed;align=center;" vertex="1" parent="31">
                    <mxGeometry x="25" y="140.94" width="40" height="40" as="geometry"/>
                </mxCell>
                <mxCell id="46" style="edgeStyle=none;html=1;exitX=1;exitY=0.5;exitDx=0;exitDy=0;entryX=0.779;entryY=-0.003;entryDx=0;entryDy=0;entryPerimeter=0;fontSize=9;" edge="1" parent="31" source="22" target="44">
                    <mxGeometry relative="1" as="geometry"/>
                </mxCell>
                <mxCell id="22" value="&lt;font size=&quot;1&quot;&gt;ITLB&lt;/font&gt;" style="whiteSpace=wrap;html=1;aspect=fixed;align=center;" vertex="1" parent="31">
                    <mxGeometry x="25" y="80.94" width="40" height="40" as="geometry"/>
                </mxCell>
                <mxCell id="23" style="edgeStyle=none;html=1;exitX=0.5;exitY=0;exitDx=0;exitDy=0;entryX=0.5;entryY=1;entryDx=0;entryDy=0;fontSize=9;" edge="1" parent="31" source="24" target="20">
                    <mxGeometry relative="1" as="geometry"/>
                </mxCell>
                <mxCell id="24" value="&lt;font size=&quot;1&quot;&gt;方向&lt;br&gt;预测器&lt;/font&gt;" style="whiteSpace=wrap;html=1;aspect=fixed;align=center;" vertex="1" parent="31">
                    <mxGeometry x="25" y="260.94" width="40" height="40" as="geometry"/>
                </mxCell>
                <mxCell id="44" value="" style="rounded=0;whiteSpace=wrap;html=1;fontSize=9;rotation=-90;" vertex="1" parent="31">
                    <mxGeometry x="35" y="124.25" width="102.5" height="10" as="geometry"/>
                </mxCell>
                <mxCell id="34" style="edgeStyle=none;html=1;exitX=0.5;exitY=1;exitDx=0;exitDy=0;entryX=0;entryY=0.5;entryDx=0;entryDy=0;fontSize=9;" edge="1" parent="1" source="29" target="20">
                    <mxGeometry relative="1" as="geometry">
                        <Array as="points">
                            <mxPoint x="115" y="430"/>
                            <mxPoint x="115" y="460"/>
                        </Array>
                    </mxGeometry>
                </mxCell>
                <mxCell id="35" style="edgeStyle=none;html=1;exitX=0.5;exitY=1;exitDx=0;exitDy=0;entryX=0;entryY=0.5;entryDx=0;entryDy=0;fontSize=9;" edge="1" parent="1" source="29" target="21">
                    <mxGeometry relative="1" as="geometry">
                        <Array as="points">
                            <mxPoint x="115" y="430"/>
                            <mxPoint x="115" y="400"/>
                        </Array>
                    </mxGeometry>
                </mxCell>
                <mxCell id="32" style="edgeStyle=none;html=1;exitX=0.5;exitY=1;exitDx=0;exitDy=0;entryX=0;entryY=0.5;entryDx=0;entryDy=0;fontSize=9;" edge="1" parent="1" source="29" target="22">
                    <mxGeometry relative="1" as="geometry">
                        <Array as="points">
                            <mxPoint x="115" y="430"/>
                            <mxPoint x="115" y="340"/>
                        </Array>
                    </mxGeometry>
                </mxCell>
                <mxCell id="33" style="edgeStyle=none;html=1;exitX=0.5;exitY=1;exitDx=0;exitDy=0;entryX=0;entryY=0.5;entryDx=0;entryDy=0;fontSize=9;" edge="1" parent="1" source="29" target="24">
                    <mxGeometry relative="1" as="geometry">
                        <Array as="points">
                            <mxPoint x="115" y="430"/>
                            <mxPoint x="115" y="520"/>
                        </Array>
                    </mxGeometry>
                </mxCell>
                <mxCell id="42" style="edgeStyle=none;html=1;exitX=1;exitY=0.5;exitDx=0;exitDy=0;entryX=0.9;entryY=0.828;entryDx=0;entryDy=0;entryPerimeter=0;fontSize=9;" edge="1" parent="1" source="24" target="36">
                    <mxGeometry relative="1" as="geometry">
                        <Array as="points">
                            <mxPoint x="175" y="520"/>
                            <mxPoint x="175" y="535"/>
                            <mxPoint x="175" y="550"/>
                            <mxPoint x="45" y="550"/>
                            <mxPoint x="45" y="530"/>
                            <mxPoint x="45" y="515"/>
                        </Array>
                    </mxGeometry>
                </mxCell>
                <mxCell id="51" value="PREDECODER" style="swimlane;fontSize=9;" vertex="1" parent="1">
                    <mxGeometry x="200" y="239" width="100" height="366" as="geometry">
                        <mxRectangle x="200" y="239" width="95" height="23" as="alternateBounds"/>
                    </mxGeometry>
                </mxCell>
                <mxCell id="56" style="edgeStyle=none;html=1;exitX=1;exitY=0.5;exitDx=0;exitDy=0;entryX=0.5;entryY=0;entryDx=0;entryDy=0;fontSize=9;" edge="1" parent="51" source="52" target="55">
                    <mxGeometry relative="1" as="geometry"/>
                </mxCell>
                <mxCell id="52" value="&lt;font size=&quot;1&quot;&gt;PRE-DECODER&lt;/font&gt;" style="whiteSpace=wrap;html=1;aspect=fixed;align=center;" vertex="1" parent="51">
                    <mxGeometry x="18" y="169" width="49" height="49" as="geometry"/>
                </mxCell>
                <mxCell id="55" value="" style="rounded=0;whiteSpace=wrap;html=1;fontSize=9;rotation=-90;" vertex="1" parent="51">
                    <mxGeometry x="35" y="189.25" width="102.5" height="10" as="geometry"/>
                </mxCell>
                <mxCell id="53" style="edgeStyle=none;html=1;exitX=0.5;exitY=1;exitDx=0;exitDy=0;entryX=0;entryY=0.5;entryDx=0;entryDy=0;fontSize=9;" edge="1" parent="1" source="44" target="52">
                    <mxGeometry relative="1" as="geometry">
                        <Array as="points">
                            <mxPoint x="205" y="368"/>
                            <mxPoint x="205" y="434"/>
                        </Array>
                    </mxGeometry>
                </mxCell>
                <mxCell id="61" value="IQ" style="swimlane;fontSize=9;" vertex="1" parent="1">
                    <mxGeometry x="300" y="239" width="130" height="366" as="geometry"/>
                </mxCell>
                <mxCell id="62" value="别名错误&lt;br&gt;jal/jalr" style="whiteSpace=wrap;html=1;aspect=fixed;fontSize=9;" vertex="1" parent="61">
                    <mxGeometry x="29.53" y="80" width="40.94" height="40.94" as="geometry"/>
                </mxCell>
                <mxCell id="63" value="BTAC" style="whiteSpace=wrap;html=1;aspect=fixed;fontSize=9;" vertex="1" parent="61">
                    <mxGeometry x="29.529999999999973" y="140.72000000000003" width="40.94" height="40.94" as="geometry"/>
                </mxCell>
                <mxCell id="67" value="" style="edgeStyle=none;html=1;fontSize=9;" edge="1" parent="61" source="64" target="63">
                    <mxGeometry relative="1" as="geometry"/>
                </mxCell>
                <mxCell id="64" value="PHT" style="whiteSpace=wrap;html=1;aspect=fixed;fontSize=9;" vertex="1" parent="61">
                    <mxGeometry x="29.529999999999973" y="201.53000000000003" width="40.94" height="40.94" as="geometry"/>
                </mxCell>
                <mxCell id="77" style="edgeStyle=none;html=1;exitX=1;exitY=0.25;exitDx=0;exitDy=0;entryX=0.135;entryY=1.029;entryDx=0;entryDy=0;entryPerimeter=0;fontSize=9;" edge="1" parent="61" source="66" target="76">
                    <mxGeometry relative="1" as="geometry"/>
                </mxCell>
                <mxCell id="79" style="edgeStyle=none;html=1;exitX=1;exitY=0.75;exitDx=0;exitDy=0;entryX=0.358;entryY=0.884;entryDx=0;entryDy=0;entryPerimeter=0;fontSize=9;" edge="1" parent="61" source="66" target="76">
                    <mxGeometry relative="1" as="geometry"/>
                </mxCell>
                <mxCell id="66" value="IQ" style="whiteSpace=wrap;html=1;aspect=fixed;fontSize=9;" vertex="1" parent="61">
                    <mxGeometry x="29.529999999999973" y="261" width="40.94" height="40.94" as="geometry"/>
                </mxCell>
                <mxCell id="83" style="edgeStyle=none;html=1;exitX=0.396;exitY=0.091;exitDx=0;exitDy=0;entryX=0.399;entryY=1.027;entryDx=0;entryDy=0;fontSize=9;exitPerimeter=0;entryPerimeter=0;" edge="1" parent="61" source="76" target="82">
                    <mxGeometry relative="1" as="geometry"/>
                </mxCell>
                <mxCell id="84" style="edgeStyle=none;html=1;exitX=0.619;exitY=-0.06;exitDx=0;exitDy=0;entryX=0.623;entryY=1.094;entryDx=0;entryDy=0;entryPerimeter=0;fontSize=9;exitPerimeter=0;" edge="1" parent="61" source="76" target="82">
                    <mxGeometry relative="1" as="geometry"/>
                </mxCell>
                <mxCell id="76" value="1&lt;span style=&quot;white-space: pre&quot;&gt;&#9;&lt;/span&gt;&lt;span style=&quot;white-space: pre&quot;&gt;&#9;&lt;/span&gt;0" style="shape=trapezoid;perimeter=trapezoidPerimeter;whiteSpace=wrap;html=1;fixedSize=1;fontSize=9;rotation=90;" vertex="1" parent="61">
                    <mxGeometry x="42.81" y="299.01" width="92.13" height="11.47" as="geometry"/>
                </mxCell>
                <mxCell id="80" style="edgeStyle=none;html=1;entryX=0.642;entryY=1.024;entryDx=0;entryDy=0;fontSize=9;entryPerimeter=0;" edge="1" parent="61" target="76">
                    <mxGeometry relative="1" as="geometry">
                        <mxPoint x="15" y="271" as="sourcePoint"/>
                        <mxPoint x="48.27999999999997" y="393.235" as="targetPoint"/>
                        <Array as="points">
                            <mxPoint x="15" y="286"/>
                            <mxPoint x="15" y="318"/>
                        </Array>
                    </mxGeometry>
                </mxCell>
                <mxCell id="81" style="edgeStyle=none;html=1;fontSize=9;entryX=0.852;entryY=0.955;entryDx=0;entryDy=0;entryPerimeter=0;" edge="1" parent="61" target="76">
                    <mxGeometry relative="1" as="geometry">
                        <mxPoint x="20" y="291" as="sourcePoint"/>
                        <mxPoint x="90" y="338" as="targetPoint"/>
                        <Array as="points">
                            <mxPoint x="20" y="338"/>
                        </Array>
                    </mxGeometry>
                </mxCell>
                <mxCell id="82" value="" style="rounded=0;whiteSpace=wrap;html=1;fontSize=9;rotation=90;" vertex="1" parent="61">
                    <mxGeometry x="68" y="299.48" width="92.25" height="11" as="geometry"/>
                </mxCell>
                <mxCell id="69" style="edgeStyle=none;html=1;exitX=0.5;exitY=1;exitDx=0;exitDy=0;entryX=0;entryY=0.5;entryDx=0;entryDy=0;fontSize=9;" edge="1" parent="1" source="55" target="62">
                    <mxGeometry relative="1" as="geometry">
                        <Array as="points">
                            <mxPoint x="310" y="433"/>
                            <mxPoint x="310" y="339"/>
                        </Array>
                    </mxGeometry>
                </mxCell>
                <mxCell id="70" style="edgeStyle=none;html=1;exitX=0.5;exitY=1;exitDx=0;exitDy=0;entryX=0;entryY=0.5;entryDx=0;entryDy=0;fontSize=9;" edge="1" parent="1" source="55" target="63">
                    <mxGeometry relative="1" as="geometry">
                        <Array as="points">
                            <mxPoint x="310" y="433"/>
                            <mxPoint x="310" y="400"/>
                        </Array>
                    </mxGeometry>
                </mxCell>
                <mxCell id="71" style="edgeStyle=none;html=1;exitX=0.5;exitY=1;exitDx=0;exitDy=0;entryX=0;entryY=0.5;entryDx=0;entryDy=0;fontSize=9;" edge="1" parent="1" source="55" target="64">
                    <mxGeometry relative="1" as="geometry">
                        <Array as="points">
                            <mxPoint x="310" y="433"/>
                            <mxPoint x="310" y="461"/>
                        </Array>
                    </mxGeometry>
                </mxCell>
                <mxCell id="72" style="edgeStyle=none;html=1;exitX=0.5;exitY=1;exitDx=0;exitDy=0;entryX=0;entryY=0.25;entryDx=0;entryDy=0;fontSize=9;" edge="1" parent="1" source="55" target="66">
                    <mxGeometry relative="1" as="geometry">
                        <Array as="points">
                            <mxPoint x="310" y="433"/>
                            <mxPoint x="310" y="510"/>
                        </Array>
                    </mxGeometry>
                </mxCell>
                <mxCell id="73" style="edgeStyle=none;html=1;exitX=0.5;exitY=0;exitDx=0;exitDy=0;entryX=0.204;entryY=1.441;entryDx=0;entryDy=0;entryPerimeter=0;fontSize=9;" edge="1" parent="1" source="62" target="36">
                    <mxGeometry relative="1" as="geometry">
                        <Array as="points">
                            <mxPoint x="350" y="290"/>
                            <mxPoint x="35" y="290"/>
                            <mxPoint x="35" y="367"/>
                        </Array>
                    </mxGeometry>
                </mxCell>
                <mxCell id="74" style="edgeStyle=none;html=1;exitX=1;exitY=0.5;exitDx=0;exitDy=0;entryX=0.25;entryY=1;entryDx=0;entryDy=0;fontSize=9;" edge="1" parent="1" source="63" target="36">
                    <mxGeometry relative="1" as="geometry">
                        <Array as="points">
                            <mxPoint x="380" y="400"/>
                            <mxPoint x="380" y="275"/>
                            <mxPoint x="25" y="275"/>
                            <mxPoint x="25" y="377"/>
                        </Array>
                    </mxGeometry>
                </mxCell>
                <mxCell id="75" style="edgeStyle=none;html=1;exitX=0.5;exitY=1;exitDx=0;exitDy=0;entryX=0;entryY=0.75;entryDx=0;entryDy=0;fontSize=9;" edge="1" parent="1" source="55" target="66">
                    <mxGeometry relative="1" as="geometry">
                        <Array as="points">
                            <mxPoint x="310" y="433"/>
                            <mxPoint x="310" y="531"/>
                        </Array>
                    </mxGeometry>
                </mxCell>
            </root>
        </mxGraphModel>
    </diagram>
</mxfile>